<svg xmlns="http://www.w3.org/2000/svg" viewBox="0 0 823.11 374.37"><defs><style>.cls-1{fill:#f1ede0;}</style></defs><title>white logo 1</title><g id="Layer_2" data-name="Layer 2"><g id="Layer_1-2" data-name="Layer 1"><path class="cls-1" d="M321.43,0H296.61V2.73C311,3.48,322,7.81,322,19.43V172.65c0,13.29,11.33,24.07,25.3,24.07V28.79C346.63,4.92,328.33,0,321.43,0"/><path class="cls-1" d="M448.82,54.63V169.29a31,31,0,0,0,3.84,15.23c-5.4,4-15.81,7.86-31.65,7.86-19.06,0-31.46-9.69-30.52-32.11V78.71c0-13.29-11.33-24.08-25.3-24.08V159.45c0,9.79,3.31,17.28,8.62,22.9l3.74,3.42c10.08,7.91,24.83,11,38.46,11,30.31,0,58.13-14.62,58.13-24.82V78.72c0-13.3-11.33-24.09-25.31-24.09"/><path class="cls-1" d="M639.08,54.63c-21.34,0-35.1,4.87-43.66,11-10.08-7.91-24.83-11-38.45-11-18,0-30.66,3.49-39.31,8.23-4.85-6.05-11.8-9.59-18.71-9.59H474.13v2.86c14.49,0,25.41,5,24.7,16.57v99.93c0,13.3,11.34,24.08,25.32,24.08V82.06a30.94,30.94,0,0,0-3.85-15.23c5.4-4,15.81-7.86,31.65-7.86,19.06,0,31.47,9.68,30.52,32.11v81.57c0,13.3,11.33,24.07,25.3,24.07V91.91c0-9.79-3.31-17.28-8.62-22.89C603.8,64.49,615.94,59,634.09,59c19.05,0,30.5,9.68,30.5,32.11v81.57c0,13.29,11.33,24.07,25.31,24.07V91.91c0-28-27.07-37.28-50.81-37.28"/><path class="cls-1" d="M771.09,53.27c-44.89,0-56.65,21.36-56.65,30.71s7,15.14,15.72,15.14,16-5.67,16-14.44-6.71-14-11.45-15.71c4.11-4.68,12-11.33,31.31-11.33s31.75,9.77,31.75,32.42v25.61c-34.3,7-90.5,11.52-90.5,48.3,0,14.91,11.4,32.74,39.09,32.74,27.17,0,47-20.09,47-20.09-6.52,4.43-25.59,9.81-32.31,9.81-17.7,0-27.07-10.76-27.07-28.12,0-20.95,17.16-29.05,34.44-32.64,10-2.09,21.52-4.42,29.39-6v41c3.22,0,8.65-7.35,8.65-11.37h2.13c0,7.79-3.53,15.77-10.35,22,2.08,17.24,14.45,25.35,24.88,25.35V90.91c-.72-28.29-28.06-37.63-52-37.63"/><path class="cls-1" d="M771.09,228c-44.89,0-56.65,21.36-56.65,30.71s7,15.14,15.72,15.14,16-5.67,16-14.44-6.71-14-11.45-15.7c4.11-4.68,12-11.34,31.31-11.34s31.75,9.78,31.75,32.42v25.61c-34.3,7-90.5,11.52-90.5,48.3,0,14.92,11.4,32.74,39.09,32.74,27.17,0,47-20.09,47-20.09-6.52,4.43-25.59,9.81-32.31,9.81-17.7,0-27.07-10.76-27.07-28.12,0-20.94,17.16-29.05,34.44-32.64,10-2.09,21.52-4.42,29.39-6v41c3.22,0,8.65-7.35,8.65-11.37h2.13c0,7.79-3.53,15.77-10.35,22,2.08,17.24,14.45,25.35,24.88,25.35V265.65c-.72-28.29-28.06-37.63-52-37.63"/><path class="cls-1" d="M531,228c-44.9,0-56.65,21.36-56.65,30.71s7,15.14,15.72,15.14,16-5.67,16-14.44-6.71-14-11.45-15.7c4.12-4.68,12-11.34,31.31-11.34s31.75,9.78,31.75,32.42v25.61c-34.3,7-90.49,11.52-90.49,48.3,0,14.92,11.4,32.74,39.09,32.74,27.18,0,47-20.09,47-20.09-6.52,4.43-25.59,9.81-32.31,9.81-17.71,0-27.08-10.76-27.08-28.12,0-20.94,17.16-29.05,34.44-32.64,10-2.09,21.52-4.42,29.39-6v41c3.22,0,8.65-7.35,8.65-11.37h2.13c0,7.79-3.53,15.77-10.35,22,2.08,17.24,14.45,25.35,24.88,25.35V265.65C582.31,237.36,555,228,531,228"/><path class="cls-1" d="M426.68,345c-10.52-11.16-43-48.14-49.4-57.06,6.69-8.29,23.65-29,29.71-35.34,13.7-14.34,15.49-19,39.78-19v-2.74H424.22a27.15,27.15,0,0,0-20.93,9.85c-11.16,13.5-30.46,36.67-35.58,41.79-4.78,5.1-10.84,8.92-20.39,11.15V203.53c-.7-23.87-19-28.79-25.9-28.79H296.61v2.74c14.43.75,25.41,5.07,25.41,16.7V347.39c0,13.29,11.33,24.07,25.3,24.07V302a19.66,19.66,0,0,1,5.73-.64c2.87,0,4.78,1.6,9.24,6.7,1.23,1.23,22.34,26.16,37.77,44.41a53.51,53.51,0,0,0,40.51,18.95c5.89,0,12.19.07,18.29.07v-2.73c-12.43-.64-16.89-8.42-32.19-23.72"/><path class="cls-1" d="M696.18,235.14c-5.52-6.9-26.8-15.69-59.9,10.84a77.43,77.43,0,0,0-14.16,14.65,26.36,26.36,0,0,0-9.65-1.82v88.8a30.94,30.94,0,0,0,3.84,15.23,37.92,37.92,0,0,1-12.62,5.59l2.35,3c18.33-5,31.74-14.17,31.74-21.25V282.89a23.45,23.45,0,0,0-7.64-17.23c.93-7.2,5.3-13.73,12.43-19.44,14.2-11.38,24-11.16,29.77-10.14-2.49,4-4.35,11.87.84,18.34s13.93,6.31,20.35,1.16,8.15-13.57,2.64-20.44"/><path class="cls-1" d="M212.56,171.49H139.73l51.66-51.67A41.09,41.09,0,1,0,133.28,61.7L82.18,112.8V41.1A41.09,41.09,0,1,0,0,41.1V212.58a41,41,0,0,0,16.15,32.61L133.28,362.34a41.09,41.09,0,1,0,58.11-58.12l-50.53-50.54h71.7a41.1,41.1,0,0,0,0-82.19M41.45,249a36.82,36.82,0,0,1-25.9-62.91l61.94-61.92v52h50.9L92.55,212l37,37Z"/></g></g></svg>