<svg xmlns="http://www.w3.org/2000/svg" viewBox="0 0 875.06 1291.54"><defs><style>.cls-1{fill:#f1ede0;}</style></defs><title>white logo 3</title><g id="Layer_2" data-name="Layer 2"><g id="Layer_1-2" data-name="Layer 1"><path class="cls-1" d="M733.3,591.61H482L660.28,413.35A141.77,141.77,0,0,0,459.8,212.84L283.53,389.15V141.8A141.76,141.76,0,1,0,0,141.8V733.38A141.4,141.4,0,0,0,55.71,845.87L459.8,1250a141.77,141.77,0,0,0,200.47-200.51L486,875.17H733.3a141.78,141.78,0,0,0,0-283.55M143,858.94c-69.89,0-126.76-56.87-126.76-126.77a126.71,126.71,0,0,1,37.4-90.25L267.3,428.3V607.83H442.89L319.3,731.43,446.82,858.94Z"/></g></g></svg>